<!-- Generator: Adobe Illustrator 24.0.0, SVG Export Plug-In  -->
<svg version="1.1" xmlns="http://www.w3.org/2000/svg" xmlns:xlink="http://www.w3.org/1999/xlink" x="0px" y="0px" width="81px"
	 height="81px" viewBox="0 0 81 81" style="enable-background:new 0 0 81 81;" xml:space="preserve">
<style type="text/css">
	.st0{fill:#BE1E2D;}
</style>
<defs>
</defs>
<g>
	<g>
		<g>
			<g>
				<path class="st0" d="M74.25,43.2h-0.04c0.89-1.16,1.38-2.58,1.39-4.05v-2.7c0-3.73-3.02-6.75-6.75-6.75
					c-3.73,0-6.75,3.02-6.75,6.75v2.7c0.01,1.47,0.49,2.9,1.39,4.06c-2.24,0.05-4.3,1.2-5.52,3.08l-3.68,6.47l-2.78-6.04
					c-0.02-0.05-0.05-0.1-0.08-0.15c-1.19-1.97-3.28-3.22-5.58-3.35c0.9-1.17,1.4-2.6,1.4-4.07v-2.7c0-3.73-3.02-6.75-6.75-6.75
					c-3.73,0-6.75,3.02-6.75,6.75v2.7c0.01,1.47,0.49,2.9,1.39,4.06c-2.2,0.04-4.25,1.16-5.47,3c-0.04,0.06-0.08,0.13-0.11,0.19
					l-2.87,6.35l-3.72-6.54c-1.22-1.83-3.26-2.95-5.47-3c0.9-1.16,1.39-2.59,1.39-4.06v-2.7c0-3.73-3.02-6.75-6.75-6.75
					S5.4,32.72,5.4,36.45v2.7c0,1.47,0.49,2.89,1.39,4.05H6.75C3.02,43.2,0,46.22,0,49.95v10.8c0,0.75,0.6,1.35,1.35,1.35H5.4v17.55
					C5.4,80.4,6,81,6.75,81h10.8c0.75,0,1.35-0.6,1.35-1.35V54.66l4.26,6.81c0.25,0.39,0.68,0.63,1.14,0.63h5.4
					c0.48,0,0.93-0.26,1.17-0.67c0.01-0.01,0.01-0.03,0.02-0.04c0.01-0.01,0.02-0.02,0.02-0.03l2.84-5.68v23.98
					c0,0.75,0.6,1.35,1.35,1.35h10.8c0.75,0,1.35-0.6,1.35-1.35V55.67l2.83,5.68c0.01,0.01,0.02,0.02,0.02,0.04
					c0.01,0.01,0.01,0.03,0.02,0.04c0.03,0.05,0.06,0.09,0.1,0.13c0.03,0.04,0.06,0.09,0.1,0.13c0.05,0.05,0.1,0.09,0.16,0.13
					c0.09,0.09,0.21,0.15,0.33,0.18c0.04,0.02,0.08,0.03,0.12,0.05c0.12,0.03,0.24,0.05,0.37,0.04h5.4c0.47,0,0.9-0.24,1.14-0.63
					l4.26-6.81v24.99c0,0.75,0.6,1.35,1.35,1.35h10.8c0.75,0,1.35-0.6,1.35-1.35V62.1h4.05c0.75,0,1.35-0.6,1.35-1.35v-10.8
					C81,46.22,77.98,43.2,74.25,43.2z M64.8,36.45c0-2.24,1.81-4.05,4.05-4.05c2.24,0,4.05,1.81,4.05,4.05v2.7
					c0,2.24-1.81,4.05-4.05,4.05c-2.24,0-4.05-1.81-4.05-4.05V36.45z M36.45,36.45c0-2.24,1.81-4.05,4.05-4.05s4.05,1.81,4.05,4.05
					v2.7c0,2.24-1.81,4.05-4.05,4.05s-4.05-1.81-4.05-4.05V36.45z M8.1,36.45c0-2.24,1.81-4.05,4.05-4.05s4.05,1.81,4.05,4.05v2.7
					c0,2.24-1.81,4.05-4.05,4.05S8.1,41.39,8.1,39.15V36.45z M16.2,78.3h-2.7V64.8h-2.7v13.5H8.1V62.1h8.1V78.3z M25.05,59.4
					l-6.35-10.17c-0.4-0.63-1.23-0.82-1.86-0.43c-0.39,0.25-0.63,0.68-0.63,1.14v9.45H8.1v-9.45H5.4v9.45H2.7v-9.45
					c0-2.24,1.81-4.05,4.05-4.05h4.05v10.8h2.7V45.9h3.69c0.08,0,0.16,0,0.23,0.01h0.04c0.06,0,0.12,0,0.17,0
					c1.22,0.07,2.35,0.7,3.04,1.71l6.7,11.78H25.05z M44.55,78.3h-2.7V64.8h-2.7v13.5h-2.7V62.1h8.1V78.3z M51.3,57.73l-4.18-8.38
					c-0.32-0.67-1.13-0.95-1.8-0.63c-0.47,0.23-0.77,0.71-0.76,1.23v9.45h-8.1v-9.45c0-0.75-0.6-1.35-1.35-1.35
					c-0.51,0-0.98,0.29-1.21,0.75l-4.19,8.38l-1.21-2.41l3.48-7.7c0.76-1.08,1.99-1.72,3.31-1.72h3.86v10.8h2.7V45.9h3.69
					c1.46,0.02,2.8,0.79,3.56,2.03l3.4,7.39L51.3,57.73z M72.9,78.3h-2.7V64.8h-2.7v13.5h-2.7V62.1h8.1V78.3z M78.3,59.4h-2.7v-9.45
					h-2.7v9.45h-8.1v-9.45c0-0.75-0.6-1.35-1.35-1.35c-0.47,0-0.9,0.24-1.14,0.63L55.95,59.4h-2.33l6.65-11.7
					c0.7-1.05,1.84-1.71,3.09-1.79c0.06,0,0.11,0,0.17,0h0.04c0.08,0,0.16-0.01,0.23-0.01h3.69v10.8h2.7V45.9h4.05
					c2.24,0,4.05,1.81,4.05,4.05V59.4z"/>
			</g>
		</g>
		<g>
			<g>
				<path class="st0" d="M40.5,0C18.14,0.03,0.03,18.14,0,40.5v1.35h2.7V40.5c-0.01-5.61,1.24-11.14,3.65-16.2h12.36
					c-0.43,1.71-0.81,3.44-1.08,5.19l2.67,0.42c0.3-1.89,0.7-3.76,1.2-5.61h17.65V27h2.7v-2.7h17.71c0.5,1.85,0.9,3.72,1.21,5.61
					l2.67-0.41c-0.27-1.75-0.65-3.48-1.08-5.19h12.3c2.41,5.06,3.65,10.6,3.65,16.2v1.35H81V40.5C80.97,18.14,62.86,0.03,40.5,0z
					 M27.67,4.94c-1.04,1.46-2.02,2.96-2.91,4.51h-5.78C21.67,7.58,24.59,6.06,27.67,4.94z M19.46,21.6H7.79
					c2.06-3.55,4.68-6.74,7.75-9.45h7.73C21.72,15.18,20.45,18.34,19.46,21.6z M39.15,21.6H22.3c1.05-3.27,2.41-6.43,4.05-9.45h12.8
					V21.6z M39.16,9.45H27.92c1.06-1.72,2.21-3.37,3.45-4.97L32,3.67c2.35-0.54,4.75-0.86,7.16-0.95L39.16,9.45L39.16,9.45z
					 M62.02,9.45H56.3c-0.89-1.54-1.86-3.03-2.9-4.48C56.46,6.09,59.35,7.59,62.02,9.45z M41.85,2.73c2.43,0.09,4.86,0.41,7.23,0.96
					l0.62,0.79c1.24,1.59,2.39,3.25,3.45,4.97h-11.3V2.73z M41.85,21.6v-9.45h12.86c1.64,3.02,3,6.18,4.05,9.45H41.85z M61.6,21.6
					c-0.99-3.26-2.26-6.42-3.81-9.45h7.67c3.08,2.71,5.69,5.9,7.75,9.45H61.6z"/>
			</g>
		</g>
		<g>
			<g>
				<rect x="21.6" y="36.45" class="st0" width="2.7" height="2.7"/>
			</g>
		</g>
		<g>
			<g>
				<rect x="27" y="36.45" class="st0" width="2.7" height="2.7"/>
			</g>
		</g>
		<g>
			<g>
				<rect x="51.3" y="36.45" class="st0" width="2.7" height="2.7"/>
			</g>
		</g>
		<g>
			<g>
				<rect x="56.7" y="36.45" class="st0" width="2.7" height="2.7"/>
			</g>
		</g>
	</g>
</g>
</svg>
