<!-- Generator: Adobe Illustrator 24.0.0, SVG Export Plug-In  -->
<svg version="1.1" xmlns="http://www.w3.org/2000/svg" xmlns:xlink="http://www.w3.org/1999/xlink" x="0px" y="0px" width="84.23px"
	 height="84.23px" viewBox="0 0 84.23 84.23" style="enable-background:new 0 0 84.23 84.23;" xml:space="preserve">
<style type="text/css">
	.st0{fill:#FFFFFF;}
</style>
<defs>
</defs>
<g>
	<g>
		<g>
			<path class="st0" d="M19.37,28.68c-0.64-0.64-1.68-0.64-2.33,0c-0.64,0.64-0.64,1.68,0,2.33c0.64,0.64,1.68,0.64,2.33,0
				C20.02,30.36,20.02,29.32,19.37,28.68z"/>
		</g>
	</g>
	<g>
		<g>
			<path class="st0" d="M41.65,73.65c0.73-0.98,1.12-2.17,1.12-3.41c0-3.17-2.58-5.76-5.76-5.76H9.05c-1.54,0-2.98,0.6-4.07,1.69
				c-1.09,1.09-1.69,2.53-1.69,4.07c0,1.27,0.42,2.45,1.12,3.41C1.79,75.03,0,77.77,0,80.93v1.65c0,0.91,0.74,1.65,1.65,1.65h42.77
				c0.91,0,1.65-0.74,1.65-1.65v-1.65C46.06,77.78,44.27,75.03,41.65,73.65z M7.3,68.5c0.47-0.47,1.09-0.72,1.75-0.72h27.96
				c1.36,0,2.47,1.11,2.47,2.47c0,0.66-0.26,1.28-0.72,1.75c-0.47,0.47-1.09,0.72-1.75,0.72H9.05c-1.36,0-2.47-1.11-2.47-2.47
				C6.58,69.58,6.84,68.96,7.3,68.5z M3.29,80.93C3.29,78.21,5.5,76,8.22,76h0.82h27.96h0.82c2.72,0,4.93,2.21,4.93,4.93H3.29z"/>
		</g>
	</g>
	<g>
		<g>
			<path class="st0" d="M82.7,69.11c-0.56-0.87-1.23-1.63-1.98-2.28l-7.69-6.7c-0.06-0.09-0.13-0.18-0.21-0.26
				c-0.13-0.13-0.28-0.24-0.45-0.32l-4.65-4.05L46.21,36.74c0.88-0.92,1.37-2.12,1.37-3.41c0-1.32-0.51-2.56-1.45-3.49
				c-0.41-0.41-0.87-0.73-1.36-0.96l1.99-1.99c0.56,0.15,1.13,0.22,1.7,0.22c1.68,0,3.37-0.64,4.65-1.92
				c1.24-1.24,1.93-2.9,1.93-4.65c0-1.76-0.68-3.41-1.93-4.65L39.15,1.93C37.91,0.68,36.25,0,34.5,0c-1.76,0-3.41,0.68-4.65,1.93
				c-1.72,1.72-2.28,4.16-1.7,6.35L8.28,28.14c-0.55-0.15-1.12-0.22-1.7-0.22c-1.76,0-3.41,0.68-4.65,1.93
				c-2.57,2.57-2.57,6.74,0,9.31l13.96,13.96c1.28,1.28,2.97,1.92,4.65,1.92c1.69,0,3.37-0.64,4.65-1.92
				c1.72-1.72,2.28-4.16,1.7-6.35l1.99-1.99c0.24,0.5,0.56,0.96,0.96,1.36c0.93,0.93,2.17,1.45,3.49,1.45c1.28,0,2.48-0.48,3.4-1.36
				l22.92,26.33c0.06,0.1,0.14,0.19,0.22,0.28c0.03,0.03,0.06,0.06,0.09,0.08l6.83,7.85c0.17,0.2,0.35,0.4,0.54,0.59
				c1.88,1.87,4.35,2.89,6.95,2.89c0.46,0,0.92-0.03,1.38-0.1c3.1-0.43,5.77-2.28,7.34-5.08C84.74,75.97,84.61,72.07,82.7,69.11z
				 M32.17,4.25c0.62-0.62,1.45-0.96,2.33-0.96c0.88,0,1.71,0.34,2.33,0.96l13.96,13.96c0.62,0.62,0.96,1.45,0.96,2.33
				s-0.34,1.7-0.96,2.33c-1.28,1.28-3.37,1.28-4.65,0L32.17,8.91c0,0,0,0,0,0C30.89,7.62,30.89,5.54,32.17,4.25z M22.87,50.78
				c-1.28,1.28-3.37,1.28-4.65,0L4.25,36.82c-1.28-1.28-1.28-3.37,0-4.65c0.62-0.62,1.45-0.96,2.33-0.96c0.88,0,1.7,0.34,2.32,0.96
				l13.96,13.96C24.15,47.41,24.15,49.5,22.87,50.78z M29.79,39.2l-4.6,4.6L11.23,29.84l18.61-18.61L43.8,25.19l-4.61,4.61
				c-0.01,0.01-0.03,0.03-0.05,0.04l-9.3,9.3C29.83,39.16,29.81,39.18,29.79,39.2z M35.66,42.63
				C35.66,42.64,35.66,42.64,35.66,42.63L34.5,43.8c-0.31,0.31-0.72,0.48-1.16,0.48c-0.44,0-0.85-0.17-1.16-0.48
				c-0.31-0.31-0.48-0.72-0.48-1.16c0-0.43,0.16-0.84,0.46-1.14l9.34-9.34c0.64-0.62,1.68-0.62,2.31,0.02
				c0.31,0.31,0.48,0.72,0.48,1.16c0,0.44-0.17,0.85-0.48,1.16l-1.15,1.15c-0.01,0.01-0.02,0.02-0.02,0.02L35.66,42.63z
				 M39.07,43.88l4.81-4.81l20.36,17.76l-7.43,7.43L39.07,43.88z M58.97,66.74L66.72,59l2.49,2.17l-8.07,8.07L58.97,66.74z
				 M80.15,77.44c-1.06,1.9-2.86,3.15-4.92,3.43c-2.06,0.29-4.09-0.39-5.56-1.86c-0.13-0.13-0.25-0.26-0.36-0.39
				c-0.01-0.01-0.01-0.01-0.02-0.02l-5.98-6.88l8.39-8.39l6.87,5.99c0.01,0,0.01,0.01,0.02,0.01c0.51,0.44,0.97,0.96,1.36,1.56
				C81.18,72.82,81.26,75.45,80.15,77.44z"/>
		</g>
	</g>
	<g>
		<g>
			<path class="st0" d="M31.01,17.05c-0.64-0.64-1.68-0.64-2.33,0l-6.98,6.98c-0.64,0.64-0.64,1.68,0,2.33
				c0.32,0.32,0.74,0.48,1.16,0.48s0.84-0.16,1.16-0.48l6.98-6.98C31.65,18.73,31.65,17.69,31.01,17.05z"/>
		</g>
	</g>
</g>
</svg>
