<!-- Generator: Adobe Illustrator 24.0.0, SVG Export Plug-In  -->
<svg version="1.1" xmlns="http://www.w3.org/2000/svg" xmlns:xlink="http://www.w3.org/1999/xlink" x="0px" y="0px" width="86.22px"
	 height="86.22px" viewBox="0 0 86.22 86.22" style="enable-background:new 0 0 86.22 86.22;" xml:space="preserve">
<style type="text/css">
	.st0{fill:#FFFFFF;}
</style>
<defs>
</defs>
<g>
	<path class="st0" d="M81.26,33.58h-2.09c-0.86-3.24-2.14-6.34-3.83-9.24l1.48-1.48c0.93-0.93,1.45-2.17,1.45-3.5
		c0-1.33-0.51-2.57-1.45-3.51l-6.47-6.47c-0.93-0.93-2.18-1.45-3.5-1.45s-2.57,0.51-3.5,1.45l-1.48,1.48
		c-2.91-1.7-6.01-2.98-9.24-3.83V4.95c0-2.73-2.22-4.95-4.95-4.95h-9.15c-2.73,0-4.95,2.22-4.95,4.95v2.09
		c-3.24,0.85-6.33,2.13-9.24,3.83l-1.48-1.48c-1.93-1.93-5.07-1.93-7,0l-6.47,6.47c-1.93,1.93-1.92,5.07,0,7l1.48,1.48
		c-1.7,2.9-2.98,6-3.83,9.24H4.95C2.22,33.58,0,35.8,0,38.53v9.15c0,2.73,2.22,4.95,4.95,4.95h2.09c0.85,3.24,2.13,6.33,3.83,9.24
		l-1.48,1.48c-0.93,0.93-1.45,2.18-1.45,3.5c0,1.33,0.51,2.57,1.45,3.5l6.47,6.47c0.93,0.93,2.18,1.45,3.5,1.45h0
		c1.32,0,2.57-0.52,3.49-1.45l1.48-1.48c2.9,1.69,5.99,2.98,9.24,3.83v2.09c0,2.73,2.22,4.95,4.95,4.95h9.15
		c2.73,0,4.95-2.22,4.95-4.95v-2.09c3.24-0.85,6.34-2.14,9.24-3.83l1.48,1.48c0.93,0.94,2.18,1.45,3.5,1.45s2.57-0.52,3.5-1.45
		l6.47-6.47c0.94-0.93,1.45-2.18,1.45-3.5s-0.52-2.57-1.45-3.5l-1.48-1.48c1.69-2.9,2.98-6,3.83-9.24h2.09
		c2.73,0,4.95-2.22,4.95-4.95v-9.15C86.22,35.8,84,33.58,81.26,33.58L81.26,33.58z M82.85,47.68c0,0.87-0.71,1.58-1.59,1.58h-3.41
		c-0.79,0-1.47,0.55-1.64,1.31c-0.85,3.79-2.34,7.37-4.41,10.65c-0.42,0.67-0.33,1.53,0.23,2.09l2.42,2.42
		c0.3,0.3,0.46,0.69,0.46,1.12s-0.16,0.82-0.46,1.12l-6.47,6.47c-0.3,0.3-0.69,0.46-1.12,0.46c-0.42,0-0.82-0.16-1.12-0.46
		l-2.42-2.42c-0.56-0.56-1.43-0.65-2.09-0.23c-3.28,2.08-6.86,3.56-10.65,4.41c-0.77,0.17-1.31,0.86-1.31,1.64v3.41
		c0,0.87-0.71,1.59-1.58,1.59h-9.15c-0.87,0-1.59-0.71-1.59-1.59v-3.41c0-0.79-0.55-1.47-1.31-1.64c-3.78-0.85-7.36-2.34-10.64-4.41
		c-0.28-0.18-0.59-0.26-0.9-0.26c-0.43,0-0.87,0.17-1.19,0.49l-2.42,2.42c-0.3,0.3-0.69,0.46-1.11,0.46c0,0,0,0,0,0
		c-0.42,0-0.82-0.16-1.12-0.46l-6.47-6.47c-0.61-0.61-0.61-1.63,0-2.24l2.42-2.42c0.56-0.56,0.66-1.43,0.23-2.09
		c-2.08-3.29-3.57-6.87-4.41-10.65c-0.17-0.77-0.86-1.32-1.64-1.32H4.95c-0.87,0-1.58-0.71-1.58-1.58v-9.15
		c0-0.87,0.71-1.59,1.58-1.59h3.42c0.79,0,1.47-0.55,1.64-1.32c0.85-3.77,2.33-7.35,4.41-10.64c0.42-0.67,0.33-1.53-0.23-2.09
		l-2.42-2.42c-0.62-0.62-0.62-1.62,0-2.24l6.47-6.47c0.62-0.62,1.63-0.62,2.24,0l2.42,2.42c0.56,0.56,1.42,0.65,2.09,0.23
		c3.29-2.08,6.87-3.56,10.64-4.41c0.77-0.17,1.32-0.86,1.32-1.64V4.95c0-0.87,0.71-1.58,1.59-1.58h9.15c0.87,0,1.58,0.71,1.58,1.58
		v3.42c0,0.79,0.55,1.47,1.32,1.64c3.77,0.84,7.35,2.33,10.65,4.41c0.67,0.42,1.53,0.32,2.09-0.23l2.42-2.42
		c0.61-0.61,1.63-0.61,2.24,0l6.47,6.47c0.3,0.3,0.46,0.7,0.46,1.12c0,0.42-0.16,0.82-0.46,1.12l-2.42,2.42
		c-0.56,0.56-0.65,1.43-0.23,2.09c2.08,3.28,3.56,6.86,4.41,10.64c0.17,0.77,0.86,1.31,1.64,1.31h3.41c0.87,0,1.59,0.71,1.59,1.59
		L82.85,47.68L82.85,47.68z"/>
	<path class="st0" d="M66.84,27.79c-0.81,0.46-1.1,1.48-0.64,2.29c5.83,10.32,4.04,23.38-4.35,31.77
		c-10.33,10.33-27.15,10.33-37.49,0c-10.33-10.33-10.33-27.15,0-37.48c8.4-8.39,21.46-10.18,31.78-4.34
		c0.81,0.46,1.84,0.17,2.29-0.64c0.46-0.81,0.17-1.84-0.64-2.29c-5.57-3.15-12.16-4.43-18.54-3.61c-6.59,0.85-12.57,3.79-17.28,8.5
		c-11.65,11.65-11.64,30.6,0,42.25c5.83,5.82,13.48,8.73,21.13,8.73s15.3-2.91,21.12-8.73c4.71-4.71,7.65-10.68,8.5-17.27
		c0.83-6.38-0.45-12.96-3.6-18.53C68.67,27.62,67.65,27.33,66.84,27.79L66.84,27.79z"/>
	<path class="st0" d="M63.05,24.87c0.25,0,0.51-0.06,0.75-0.18c0.83-0.42,1.17-1.43,0.75-2.26l0-0.01
		c-0.42-0.83-1.43-1.16-2.26-0.75c-0.83,0.42-1.17,1.43-0.75,2.26C61.83,24.53,62.43,24.87,63.05,24.87L63.05,24.87z"/>
	<path class="st0" d="M50.39,25.79c-2.97,0-5.64,1.45-7.28,3.72c-1.64-2.28-4.31-3.72-7.27-3.72c-4.94,0-8.96,4.02-8.96,8.96
		c0,1.96,0.64,3.78,1.71,5.26c-3.43,2.37-5.56,6.3-5.56,10.54v2.2c0,0.93,0.75,1.68,1.68,1.68h5.77c-0.12,0.69-0.18,1.39-0.18,2.1
		v2.2c0,0.93,0.75,1.68,1.68,1.68h22.24c0.93,0,1.68-0.75,1.68-1.68v-2.2c0-0.71-0.06-1.41-0.18-2.1h5.77
		c0.93,0,1.68-0.75,1.68-1.68v-2.2c0-4.24-2.12-8.17-5.56-10.54c1.08-1.48,1.71-3.3,1.71-5.26C59.34,29.82,55.33,25.79,50.39,25.79
		L50.39,25.79z M50.39,29.16c3.08,0,5.59,2.51,5.59,5.6c0,2.51-1.66,4.63-3.93,5.34c-0.27-3.84-2.98-7.02-6.58-8.01
		C46.42,30.33,48.28,29.16,50.39,29.16z M37.52,40.73c0-3.08,2.51-5.59,5.59-5.59c3.09,0,5.6,2.51,5.6,5.59c0,3.09-2.51,5.6-5.6,5.6
		C40.02,46.33,37.52,43.82,37.52,40.73z M35.83,29.16c2.1,0,3.97,1.16,4.92,2.93c-3.6,0.98-6.31,4.16-6.58,8.01
		c-2.28-0.71-3.94-2.83-3.94-5.34C30.24,31.67,32.75,29.16,35.83,29.16L35.83,29.16z M26.39,51.07v-0.51c0-3.38,1.83-6.49,4.74-8.17
		c1.04,0.64,2.23,1.08,3.5,1.25c0.29,0.85,0.71,1.65,1.23,2.36c-1.87,1.29-3.36,3.05-4.32,5.07H26.39z M52.54,57.05H33.67v-0.51
		c0-3.38,1.83-6.49,4.74-8.17c1.37,0.84,2.97,1.33,4.69,1.33c1.72,0,3.33-0.49,4.69-1.33c2.91,1.68,4.74,4.8,4.74,8.17L52.54,57.05
		L52.54,57.05z M59.82,50.56v0.51h-5.15c-0.96-2.02-2.44-3.78-4.32-5.07c0.52-0.72,0.94-1.51,1.23-2.36
		c1.27-0.17,2.45-0.6,3.49-1.25C57.98,44.07,59.82,47.18,59.82,50.56z"/>
</g>
</svg>
